<mxfile host="app.diagrams.net" modified="2022-12-13T10:18:51.276Z" agent="5.0 (Windows NT 10.0; Win64; x64) AppleWebKit/537.36 (KHTML, like Gecko) Chrome/108.0.0.0 Safari/537.36" version="20.6.2" etag="VQ9CrdO3pacd7W6MoJYs" type="github">
  <diagram id="LRaTkfhSE4kQwkwmgMMM" name="페이지-1">
    <mxGraphModel dx="1483" dy="687" grid="1" gridSize="10" guides="1" tooltips="1" connect="1" arrows="1" fold="1" page="1" pageScale="1" pageWidth="827" pageHeight="1169" math="0" shadow="0">
      <root>
        <mxCell id="0" />
        <mxCell id="1" parent="0" />
        <mxCell id="CLggKTLqunYpJMAszl0h-1" value="&lt;b&gt;bobalkkagi&lt;/b&gt;" style="text;html=1;align=center;verticalAlign=middle;resizable=0;points=[];autosize=1;fillColor=#f5f5f5;fontColor=#333333;strokeColor=#666666;" vertex="1" parent="1">
          <mxGeometry x="120" y="130" width="90" height="30" as="geometry" />
        </mxCell>
        <mxCell id="CLggKTLqunYpJMAszl0h-6" value="__init__.py" style="text;html=1;align=left;verticalAlign=middle;resizable=0;points=[];autosize=1;strokeColor=none;fillColor=none;" vertex="1" parent="1">
          <mxGeometry x="240" y="175" width="80" height="30" as="geometry" />
        </mxCell>
        <mxCell id="CLggKTLqunYpJMAszl0h-7" value="__main__.py" style="text;html=1;align=left;verticalAlign=middle;resizable=0;points=[];autosize=1;strokeColor=none;fillColor=none;" vertex="1" parent="1">
          <mxGeometry x="240" y="205" width="90" height="30" as="geometry" />
        </mxCell>
        <mxCell id="CLggKTLqunYpJMAszl0h-8" value="api_hook.py" style="text;html=1;align=left;verticalAlign=middle;resizable=0;points=[];autosize=1;strokeColor=none;fillColor=none;" vertex="1" parent="1">
          <mxGeometry x="240" y="235" width="90" height="30" as="geometry" />
        </mxCell>
        <mxCell id="CLggKTLqunYpJMAszl0h-9" value="application.py" style="text;html=1;align=left;verticalAlign=middle;resizable=0;points=[];autosize=1;strokeColor=none;fillColor=none;" vertex="1" parent="1">
          <mxGeometry x="240" y="265" width="100" height="30" as="geometry" />
        </mxCell>
        <mxCell id="CLggKTLqunYpJMAszl0h-10" value="globalValue.py" style="text;html=1;align=left;verticalAlign=middle;resizable=0;points=[];autosize=1;strokeColor=none;fillColor=none;" vertex="1" parent="1">
          <mxGeometry x="240" y="355" width="100" height="30" as="geometry" />
        </mxCell>
        <mxCell id="CLggKTLqunYpJMAszl0h-11" value="unpacking.py" style="text;html=1;align=left;verticalAlign=middle;resizable=0;points=[];autosize=1;strokeColor=none;fillColor=none;" vertex="1" parent="1">
          <mxGeometry x="240" y="595" width="90" height="30" as="geometry" />
        </mxCell>
        <mxCell id="CLggKTLqunYpJMAszl0h-12" value="hookFuncs.py" style="text;html=1;align=left;verticalAlign=middle;resizable=0;points=[];autosize=1;strokeColor=none;fillColor=none;" vertex="1" parent="1">
          <mxGeometry x="240" y="385" width="100" height="30" as="geometry" />
        </mxCell>
        <mxCell id="CLggKTLqunYpJMAszl0h-13" value="constValue.py" style="text;html=1;align=left;verticalAlign=middle;resizable=0;points=[];autosize=1;strokeColor=none;fillColor=none;" vertex="1" parent="1">
          <mxGeometry x="240" y="295" width="100" height="30" as="geometry" />
        </mxCell>
        <mxCell id="CLggKTLqunYpJMAszl0h-14" value="debugger.py" style="text;html=1;align=left;verticalAlign=middle;resizable=0;points=[];autosize=1;strokeColor=none;fillColor=none;" vertex="1" parent="1">
          <mxGeometry x="240" y="325" width="90" height="30" as="geometry" />
        </mxCell>
        <mxCell id="CLggKTLqunYpJMAszl0h-15" value="kuserSharedData.py" style="text;html=1;align=left;verticalAlign=middle;resizable=0;points=[];autosize=1;strokeColor=none;fillColor=none;" vertex="1" parent="1">
          <mxGeometry x="240" y="415" width="130" height="30" as="geometry" />
        </mxCell>
        <mxCell id="CLggKTLqunYpJMAszl0h-16" value="logger.py" style="text;html=1;align=left;verticalAlign=middle;resizable=0;points=[];autosize=1;strokeColor=none;fillColor=none;" vertex="1" parent="1">
          <mxGeometry x="240" y="475" width="70" height="30" as="geometry" />
        </mxCell>
        <mxCell id="CLggKTLqunYpJMAszl0h-17" value="peb.py" style="text;html=1;align=left;verticalAlign=middle;resizable=0;points=[];autosize=1;strokeColor=none;fillColor=none;" vertex="1" parent="1">
          <mxGeometry x="240" y="505" width="60" height="30" as="geometry" />
        </mxCell>
        <mxCell id="CLggKTLqunYpJMAszl0h-18" value="loader.py" style="text;html=1;align=left;verticalAlign=middle;resizable=0;points=[];autosize=1;strokeColor=none;fillColor=none;" vertex="1" parent="1">
          <mxGeometry x="240" y="445" width="70" height="30" as="geometry" />
        </mxCell>
        <mxCell id="CLggKTLqunYpJMAszl0h-19" value="unwrapping.py" style="text;html=1;align=left;verticalAlign=middle;resizable=0;points=[];autosize=1;strokeColor=none;fillColor=none;" vertex="1" parent="1">
          <mxGeometry x="240" y="625" width="100" height="30" as="geometry" />
        </mxCell>
        <mxCell id="CLggKTLqunYpJMAszl0h-20" value="reflector.py" style="text;html=1;align=left;verticalAlign=middle;resizable=0;points=[];autosize=1;strokeColor=none;fillColor=none;" vertex="1" parent="1">
          <mxGeometry x="240" y="535" width="80" height="30" as="geometry" />
        </mxCell>
        <mxCell id="CLggKTLqunYpJMAszl0h-21" value="teb.py" style="text;html=1;align=left;verticalAlign=middle;resizable=0;points=[];autosize=1;strokeColor=none;fillColor=none;" vertex="1" parent="1">
          <mxGeometry x="240" y="565" width="60" height="30" as="geometry" />
        </mxCell>
        <mxCell id="CLggKTLqunYpJMAszl0h-22" value="util_unwrap.py" style="text;html=1;align=left;verticalAlign=middle;resizable=0;points=[];autosize=1;strokeColor=none;fillColor=none;" vertex="1" parent="1">
          <mxGeometry x="240" y="655" width="100" height="30" as="geometry" />
        </mxCell>
        <mxCell id="CLggKTLqunYpJMAszl0h-23" value="util.py" style="text;html=1;align=left;verticalAlign=middle;resizable=0;points=[];autosize=1;strokeColor=none;fillColor=none;" vertex="1" parent="1">
          <mxGeometry x="240" y="685" width="50" height="30" as="geometry" />
        </mxCell>
        <mxCell id="CLggKTLqunYpJMAszl0h-25" value="" style="endArrow=classic;html=1;rounded=0;" edge="1" parent="1">
          <mxGeometry width="50" height="50" relative="1" as="geometry">
            <mxPoint x="160" y="190" as="sourcePoint" />
            <mxPoint x="240" y="190" as="targetPoint" />
            <Array as="points">
              <mxPoint x="160" y="160" />
              <mxPoint x="160" y="190" />
            </Array>
          </mxGeometry>
        </mxCell>
        <mxCell id="CLggKTLqunYpJMAszl0h-26" value="" style="endArrow=classic;html=1;rounded=0;" edge="1" parent="1">
          <mxGeometry width="50" height="50" relative="1" as="geometry">
            <mxPoint x="160" y="219.5" as="sourcePoint" />
            <mxPoint x="240" y="219.5" as="targetPoint" />
            <Array as="points">
              <mxPoint x="160" y="160" />
              <mxPoint x="160" y="220" />
            </Array>
          </mxGeometry>
        </mxCell>
        <mxCell id="CLggKTLqunYpJMAszl0h-27" value="" style="endArrow=classic;html=1;rounded=0;" edge="1" parent="1">
          <mxGeometry width="50" height="50" relative="1" as="geometry">
            <mxPoint x="160" y="250" as="sourcePoint" />
            <mxPoint x="240" y="249.5" as="targetPoint" />
            <Array as="points">
              <mxPoint x="160" y="160" />
              <mxPoint x="160" y="250" />
            </Array>
          </mxGeometry>
        </mxCell>
        <mxCell id="CLggKTLqunYpJMAszl0h-28" value="" style="endArrow=classic;html=1;rounded=0;" edge="1" parent="1">
          <mxGeometry width="50" height="50" relative="1" as="geometry">
            <mxPoint x="160" y="160" as="sourcePoint" />
            <mxPoint x="240" y="279.5" as="targetPoint" />
            <Array as="points">
              <mxPoint x="160" y="280" />
            </Array>
          </mxGeometry>
        </mxCell>
        <mxCell id="CLggKTLqunYpJMAszl0h-44" value="" style="endArrow=classic;html=1;rounded=0;" edge="1" parent="1">
          <mxGeometry width="50" height="50" relative="1" as="geometry">
            <mxPoint x="160" y="190" as="sourcePoint" />
            <mxPoint x="240" y="309.5" as="targetPoint" />
            <Array as="points">
              <mxPoint x="160" y="310" />
            </Array>
          </mxGeometry>
        </mxCell>
        <mxCell id="CLggKTLqunYpJMAszl0h-45" value="" style="endArrow=classic;html=1;rounded=0;" edge="1" parent="1">
          <mxGeometry width="50" height="50" relative="1" as="geometry">
            <mxPoint x="160" y="220" as="sourcePoint" />
            <mxPoint x="240" y="339.5" as="targetPoint" />
            <Array as="points">
              <mxPoint x="160" y="340" />
            </Array>
          </mxGeometry>
        </mxCell>
        <mxCell id="CLggKTLqunYpJMAszl0h-46" value="" style="endArrow=classic;html=1;rounded=0;" edge="1" parent="1">
          <mxGeometry width="50" height="50" relative="1" as="geometry">
            <mxPoint x="160" y="250" as="sourcePoint" />
            <mxPoint x="240" y="369.5" as="targetPoint" />
            <Array as="points">
              <mxPoint x="160" y="370" />
            </Array>
          </mxGeometry>
        </mxCell>
        <mxCell id="CLggKTLqunYpJMAszl0h-47" value="" style="endArrow=classic;html=1;rounded=0;" edge="1" parent="1">
          <mxGeometry width="50" height="50" relative="1" as="geometry">
            <mxPoint x="160" y="280" as="sourcePoint" />
            <mxPoint x="240" y="399.5" as="targetPoint" />
            <Array as="points">
              <mxPoint x="160" y="400" />
            </Array>
          </mxGeometry>
        </mxCell>
        <mxCell id="CLggKTLqunYpJMAszl0h-48" value="" style="endArrow=classic;html=1;rounded=0;" edge="1" parent="1">
          <mxGeometry width="50" height="50" relative="1" as="geometry">
            <mxPoint x="160" y="310" as="sourcePoint" />
            <mxPoint x="240" y="429.5" as="targetPoint" />
            <Array as="points">
              <mxPoint x="160" y="430" />
            </Array>
          </mxGeometry>
        </mxCell>
        <mxCell id="CLggKTLqunYpJMAszl0h-49" value="" style="endArrow=classic;html=1;rounded=0;" edge="1" parent="1">
          <mxGeometry width="50" height="50" relative="1" as="geometry">
            <mxPoint x="160" y="340" as="sourcePoint" />
            <mxPoint x="240" y="459.5" as="targetPoint" />
            <Array as="points">
              <mxPoint x="160" y="460" />
            </Array>
          </mxGeometry>
        </mxCell>
        <mxCell id="CLggKTLqunYpJMAszl0h-50" value="" style="endArrow=classic;html=1;rounded=0;" edge="1" parent="1">
          <mxGeometry width="50" height="50" relative="1" as="geometry">
            <mxPoint x="160" y="370" as="sourcePoint" />
            <mxPoint x="240" y="489.5" as="targetPoint" />
            <Array as="points">
              <mxPoint x="160" y="490" />
            </Array>
          </mxGeometry>
        </mxCell>
        <mxCell id="CLggKTLqunYpJMAszl0h-51" value="" style="endArrow=classic;html=1;rounded=0;" edge="1" parent="1">
          <mxGeometry width="50" height="50" relative="1" as="geometry">
            <mxPoint x="160" y="400" as="sourcePoint" />
            <mxPoint x="240" y="519.5" as="targetPoint" />
            <Array as="points">
              <mxPoint x="160" y="520" />
            </Array>
          </mxGeometry>
        </mxCell>
        <mxCell id="CLggKTLqunYpJMAszl0h-52" value="" style="endArrow=classic;html=1;rounded=0;" edge="1" parent="1">
          <mxGeometry width="50" height="50" relative="1" as="geometry">
            <mxPoint x="160" y="430" as="sourcePoint" />
            <mxPoint x="240" y="549.5" as="targetPoint" />
            <Array as="points">
              <mxPoint x="160" y="550" />
            </Array>
          </mxGeometry>
        </mxCell>
        <mxCell id="CLggKTLqunYpJMAszl0h-53" value="" style="endArrow=classic;html=1;rounded=0;" edge="1" parent="1">
          <mxGeometry width="50" height="50" relative="1" as="geometry">
            <mxPoint x="160" y="460" as="sourcePoint" />
            <mxPoint x="240" y="579.5" as="targetPoint" />
            <Array as="points">
              <mxPoint x="160" y="580" />
            </Array>
          </mxGeometry>
        </mxCell>
        <mxCell id="CLggKTLqunYpJMAszl0h-54" value="" style="endArrow=classic;html=1;rounded=0;" edge="1" parent="1">
          <mxGeometry width="50" height="50" relative="1" as="geometry">
            <mxPoint x="160" y="490" as="sourcePoint" />
            <mxPoint x="240" y="609.5" as="targetPoint" />
            <Array as="points">
              <mxPoint x="160" y="610" />
            </Array>
          </mxGeometry>
        </mxCell>
        <mxCell id="CLggKTLqunYpJMAszl0h-55" value="" style="endArrow=classic;html=1;rounded=0;" edge="1" parent="1">
          <mxGeometry width="50" height="50" relative="1" as="geometry">
            <mxPoint x="160" y="520" as="sourcePoint" />
            <mxPoint x="240" y="639.5" as="targetPoint" />
            <Array as="points">
              <mxPoint x="160" y="640" />
            </Array>
          </mxGeometry>
        </mxCell>
        <mxCell id="CLggKTLqunYpJMAszl0h-56" value="" style="endArrow=classic;html=1;rounded=0;" edge="1" parent="1">
          <mxGeometry width="50" height="50" relative="1" as="geometry">
            <mxPoint x="160" y="550" as="sourcePoint" />
            <mxPoint x="240" y="669.5" as="targetPoint" />
            <Array as="points">
              <mxPoint x="160" y="670" />
            </Array>
          </mxGeometry>
        </mxCell>
        <mxCell id="CLggKTLqunYpJMAszl0h-57" value="" style="endArrow=classic;html=1;rounded=0;" edge="1" parent="1">
          <mxGeometry width="50" height="50" relative="1" as="geometry">
            <mxPoint x="160" y="580" as="sourcePoint" />
            <mxPoint x="240" y="699.5" as="targetPoint" />
            <Array as="points">
              <mxPoint x="160" y="700" />
            </Array>
          </mxGeometry>
        </mxCell>
      </root>
    </mxGraphModel>
  </diagram>
</mxfile>
